<svg xmlns="http://www.w3.org/2000/svg" xmlns:xlink="http://www.w3.org/1999/xlink" viewBox="0 0 512 512" width="512" height="512" preserveAspectRatio="xMidYMid meet" style="width: 100%; height: 100%; transform: translate3d(0px, 0px, 0px); content-visibility: visible;"><defs><clipPath id="__lottie_element_319"><rect width="512" height="512" x="0" y="0"></rect></clipPath><linearGradient id="__lottie_element_328" spreadMethod="pad" gradientUnits="userSpaceOnUse" x1="-0.08100000023841858" y1="-142.5279998779297" x2="-0.08100000023841858" y2="102.39700317382812"><stop offset="14%" stop-color="rgb(55,255,243)"></stop><stop offset="75%" stop-color="rgb(58,128,205)"></stop><stop offset="100%" stop-color="rgb(62,0,166)"></stop></linearGradient><linearGradient id="__lottie_element_332" spreadMethod="pad" gradientUnits="userSpaceOnUse"><stop></stop><stop></stop><stop></stop></linearGradient><linearGradient id="__lottie_element_333" spreadMethod="pad" gradientUnits="userSpaceOnUse"><stop></stop><stop></stop><stop></stop></linearGradient><linearGradient id="__lottie_element_337" spreadMethod="pad" gradientUnits="userSpaceOnUse"><stop></stop><stop></stop><stop></stop></linearGradient><linearGradient id="__lottie_element_338" spreadMethod="pad" gradientUnits="userSpaceOnUse"><stop></stop><stop></stop><stop></stop></linearGradient><linearGradient id="__lottie_element_342" spreadMethod="pad" gradientUnits="userSpaceOnUse"><stop></stop><stop></stop><stop></stop></linearGradient><linearGradient id="__lottie_element_357" spreadMethod="pad" gradientUnits="userSpaceOnUse" x1="-0.7110000252723694" y1="-55.92499923706055" x2="-0.7110000252723694" y2="49.8489990234375"><stop offset="22%" stop-color="rgb(84,0,255)"></stop><stop offset="57%" stop-color="rgb(42,56,247)"></stop><stop offset="71%" stop-color="rgb(0,112,239)"></stop></linearGradient><linearGradient id="__lottie_element_358" spreadMethod="pad" gradientUnits="userSpaceOnUse" x1="-0.7110000252723694" y1="17.805999755859375" x2="-0.7110000252723694" y2="-18.38599967956543"><stop offset="20%" stop-color="rgb(255,255,255)" stop-opacity="0"></stop><stop offset="49%" stop-color="rgb(255,255,255)" stop-opacity="0.5"></stop><stop offset="100%" stop-color="rgb(255,255,255)" stop-opacity="1"></stop></linearGradient><linearGradient id="__lottie_element_359" spreadMethod="pad" gradientUnits="userSpaceOnUse" x1="-0.3100000023841858" y1="-0.125" x2="-0.3100000023841858" y2="-0.125"><stop offset="51%" stop-color="rgb(188,122,0)"></stop><stop offset="75%" stop-color="rgb(167,101,0)"></stop><stop offset="100%" stop-color="rgb(146,81,0)"></stop></linearGradient><linearGradient id="__lottie_element_360" spreadMethod="pad" gradientUnits="userSpaceOnUse" x1="-0.7099999785423279" y1="38.07500076293945" x2="-0.7099999785423279" y2="-21.847999572753906"><stop offset="0%" stop-color="rgb(60,35,118)"></stop><stop offset="48%" stop-color="rgb(74,23,146)"></stop><stop offset="100%" stop-color="rgb(87,11,173)"></stop></linearGradient><linearGradient id="__lottie_element_361" spreadMethod="pad" gradientUnits="userSpaceOnUse" x1="-0.7099999785423279" y1="46.07500076293945" x2="-0.7099999785423279" y2="-47.36000061035156"><stop offset="28%" stop-color="rgb(37,11,51)"></stop><stop offset="54%" stop-color="rgb(31,11,81)"></stop><stop offset="82%" stop-color="rgb(25,11,111)"></stop></linearGradient><linearGradient id="__lottie_element_362" spreadMethod="pad" gradientUnits="userSpaceOnUse" x1="-0.7110000252723694" y1="81.07499694824219" x2="-0.7110000252723694" y2="-82.53099822998047"><stop offset="9%" stop-color="rgb(63,0,135)"></stop><stop offset="43%" stop-color="rgb(84,0,173)"></stop><stop offset="68%" stop-color="rgb(104,0,211)"></stop></linearGradient><g id="__lottie_element_366"><g style="display: none;"><g><path fill="url(#__lottie_element_369)"></path></g></g></g><linearGradient id="__lottie_element_369" spreadMethod="pad" gradientUnits="userSpaceOnUse"><stop></stop><stop></stop><stop></stop></linearGradient><linearGradient id="__lottie_element_373" spreadMethod="pad" gradientUnits="userSpaceOnUse"><stop></stop><stop></stop><stop></stop></linearGradient><mask id="__lottie_element_366_1" mask-type="alpha"><use xlink:href="#__lottie_element_366"></use></mask><g id="__lottie_element_374"><g style="display: none;"><g><path fill="url(#__lottie_element_377)"></path></g></g></g><linearGradient id="__lottie_element_377" spreadMethod="pad" gradientUnits="userSpaceOnUse"><stop></stop><stop></stop><stop></stop></linearGradient><linearGradient id="__lottie_element_381" spreadMethod="pad" gradientUnits="userSpaceOnUse"><stop></stop><stop></stop><stop></stop></linearGradient><mask id="__lottie_element_374_1" mask-type="alpha"><use xlink:href="#__lottie_element_374"></use></mask><linearGradient id="__lottie_element_385" spreadMethod="pad" gradientUnits="userSpaceOnUse"><stop></stop><stop></stop><stop></stop></linearGradient><linearGradient id="__lottie_element_389" spreadMethod="pad" gradientUnits="userSpaceOnUse"><stop></stop><stop></stop><stop></stop></linearGradient><linearGradient id="__lottie_element_393" spreadMethod="pad" gradientUnits="userSpaceOnUse" x1="2.992000102996826" y1="33.44599914550781" x2="23.402000427246094" y2="-115.25299835205078"><stop offset="33%" stop-color="rgb(0,0,84)" stop-opacity="1"></stop><stop offset="72%" stop-color="rgb(44,0,128)" stop-opacity="0.5"></stop><stop offset="100%" stop-color="rgb(87,0,172)" stop-opacity="0"></stop></linearGradient><linearGradient id="__lottie_element_394" spreadMethod="pad" gradientUnits="userSpaceOnUse" x1="-60.77199935913086" y1="5.961999893188477" x2="76.80000305175781" y2="-33.01599884033203"><stop offset="3%" stop-color="rgb(0,0,84)" stop-opacity="1"></stop><stop offset="64%" stop-color="rgb(44,0,128)" stop-opacity="0.5"></stop><stop offset="100%" stop-color="rgb(87,0,172)" stop-opacity="0"></stop></linearGradient><linearGradient id="__lottie_element_395" spreadMethod="pad" gradientUnits="userSpaceOnUse" x1="-0.31700000166893005" y1="138.29200744628906" x2="-0.31700000166893005" y2="-139.9720001220703"><stop offset="0%" stop-color="rgb(255,255,255)" stop-opacity="0"></stop><stop offset="36%" stop-color="rgb(255,255,255)" stop-opacity="0.5"></stop><stop offset="100%" stop-color="rgb(255,255,255)" stop-opacity="1"></stop></linearGradient><linearGradient id="__lottie_element_396" spreadMethod="pad" gradientUnits="userSpaceOnUse" x1="-0.8130000233650208" y1="138.15199279785156" x2="-0.8130000233650208" y2="-138.3070068359375"><stop offset="20%" stop-color="rgb(255,255,255)" stop-opacity="0"></stop><stop offset="49%" stop-color="rgb(255,255,255)" stop-opacity="0.5"></stop><stop offset="100%" stop-color="rgb(255,255,255)" stop-opacity="1"></stop></linearGradient><linearGradient id="__lottie_element_397" spreadMethod="pad" gradientUnits="userSpaceOnUse" x1="1.4249999523162842" y1="251.43899536132812" x2="0.42500001192092896" y2="-242.91700744628906"><stop offset="18%" stop-color="rgb(20,7,64)"></stop><stop offset="52%" stop-color="rgb(13,20,80)"></stop><stop offset="66%" stop-color="rgb(7,34,95)"></stop></linearGradient><linearGradient id="__lottie_element_398" spreadMethod="pad" gradientUnits="userSpaceOnUse" x1="-0.7099999785423279" y1="38.07500076293945" x2="-0.7099999785423279" y2="-21.847999572753906"><stop offset="0%" stop-color="rgb(60,35,118)"></stop><stop offset="48%" stop-color="rgb(74,23,146)"></stop><stop offset="100%" stop-color="rgb(87,11,173)"></stop></linearGradient><linearGradient id="__lottie_element_399" spreadMethod="pad" gradientUnits="userSpaceOnUse" x1="-0.007000000216066837" y1="59.28799819946289" x2="-0.007000000216066837" y2="-59.5880012512207"><stop offset="48%" stop-color="rgb(29,11,90)"></stop><stop offset="73%" stop-color="rgb(29,11,93)"></stop><stop offset="100%" stop-color="rgb(28,11,96)"></stop></linearGradient><linearGradient id="__lottie_element_403" spreadMethod="pad" gradientUnits="userSpaceOnUse"><stop></stop><stop></stop><stop></stop></linearGradient><linearGradient id="__lottie_element_407" spreadMethod="pad" gradientUnits="userSpaceOnUse" x1="-0.08100000023841858" y1="-142.5279998779297" x2="-0.08100000023841858" y2="102.39700317382812"><stop offset="14%" stop-color="rgb(55,255,243)"></stop><stop offset="75%" stop-color="rgb(58,128,205)"></stop><stop offset="100%" stop-color="rgb(62,0,166)"></stop></linearGradient><linearGradient id="__lottie_element_408" spreadMethod="pad" gradientUnits="userSpaceOnUse" x1="1.440000057220459" y1="241.72900390625" x2="0.4399999976158142" y2="-177.55799865722656"><stop offset="0%" stop-color="rgb(255,255,255)" stop-opacity="1"></stop><stop offset="51%" stop-color="rgb(255,255,255)" stop-opacity="0.5"></stop><stop offset="80%" stop-color="rgb(255,255,255)" stop-opacity="0"></stop></linearGradient><linearGradient id="__lottie_element_409" spreadMethod="pad" gradientUnits="userSpaceOnUse" x1="-80.39900207519531" y1="-189.41600036621094" x2="54.525001525878906" y2="59.722999572753906"><stop offset="0%" stop-color="rgb(0,0,84)" stop-opacity="1"></stop><stop offset="58%" stop-color="rgb(44,0,128)" stop-opacity="0.5"></stop><stop offset="100%" stop-color="rgb(87,0,172)" stop-opacity="0"></stop></linearGradient><linearGradient id="__lottie_element_410" spreadMethod="pad" gradientUnits="userSpaceOnUse" x1="6.1519999504089355" y1="-218.8159942626953" x2="3.2869999408721924" y2="203.9029998779297"><stop offset="0%" stop-color="rgb(0,0,84)" stop-opacity="1"></stop><stop offset="58%" stop-color="rgb(44,0,128)" stop-opacity="0.5"></stop><stop offset="100%" stop-color="rgb(87,0,172)" stop-opacity="0"></stop></linearGradient><linearGradient id="__lottie_element_411" spreadMethod="pad" gradientUnits="userSpaceOnUse" x1="1.4249999523162842" y1="251.43899536132812" x2="0.42500001192092896" y2="-242.91700744628906"><stop offset="18%" stop-color="rgb(20,7,64)"></stop><stop offset="52%" stop-color="rgb(13,20,80)"></stop><stop offset="66%" stop-color="rgb(7,34,95)"></stop></linearGradient><linearGradient id="__lottie_element_415" spreadMethod="pad" gradientUnits="userSpaceOnUse"><stop></stop><stop></stop><stop></stop></linearGradient><linearGradient id="__lottie_element_416" spreadMethod="pad" gradientUnits="userSpaceOnUse"><stop></stop><stop></stop><stop></stop></linearGradient><radialGradient id="__lottie_element_420" spreadMethod="pad" gradientUnits="userSpaceOnUse" cx="0" cy="0" r="186" fx="0" fy="0"><stop offset="0%" stop-color="rgb(0,0,0)"></stop><stop offset="50%" stop-color="rgb(15,0,34)"></stop><stop offset="100%" stop-color="rgb(30,0,68)"></stop></radialGradient><mask id="__lottie_element_422"><path fill="url(#__lottie_element_421)" d=" M0,-184 C101.54959869384766,-184 184,-101.54959869384766 184,0 C184,101.54959869384766 101.54959869384766,184 0,184 C-101.54959869384766,184 -184,101.54959869384766 -184,0 C-184,-101.54959869384766 -101.54959869384766,-184 0,-184z"></path></mask><radialGradient id="__lottie_element_421" spreadMethod="pad" gradientUnits="userSpaceOnUse" cx="0" cy="0" r="186" fx="0" fy="0"><stop stop-color="rgb(255,255,255)" offset="0%" stop-opacity="1"></stop><stop stop-color="rgb(255,255,255)" offset="11%" stop-opacity="1"></stop><stop stop-color="rgb(255,255,255)" offset="22%" stop-opacity="1"></stop><stop stop-color="rgb(255,255,255)" offset="84%" stop-opacity="0.5"></stop><stop stop-color="rgb(255,255,255)" offset="100%" stop-opacity="0"></stop></radialGradient></defs><g clip-path="url(#__lottie_element_319)"><g transform="matrix(1.3748300075531006,0,0,0.4811899960041046,279.3721008300781,427.38201904296875)" opacity="0.65" style="display: block;"><g opacity="1" transform="matrix(1,0,0,1,-17,-16)"><path fill="url(#__lottie_element_420)" mask="url(#__lottie_element_422)" fill-opacity="1" d="M0 0 M0,-184 C101.54959869384766,-184 184,-101.54959869384766 184,0 C184,101.54959869384766 101.54959869384766,184 0,184 C-101.54959869384766,184 -184,101.54959869384766 -184,0 C-184,-101.54959869384766 -101.54959869384766,-184 0,-184z"></path></g></g><g style="display: none;"><g><path fill="url(#__lottie_element_415)"></path></g><g><path stroke="url(#__lottie_element_416)" stroke-linecap="round" stroke-linejoin="round" fill-opacity="0"></path></g><g><g><path stroke-linecap="round" stroke-linejoin="round" fill-opacity="0"></path></g><g><path stroke-linecap="round" stroke-linejoin="round" fill-opacity="0"></path></g><g><path stroke-linecap="round" stroke-linejoin="round" fill-opacity="0"></path></g><g><path stroke-linecap="round" stroke-linejoin="round" fill-opacity="0"></path></g></g><g><path stroke-linecap="round" stroke-linejoin="round" fill-opacity="0"></path></g><g><path stroke-linecap="round" stroke-linejoin="round" fill-opacity="0"></path></g><g><path stroke-linecap="round" stroke-linejoin="round" fill-opacity="0"></path></g></g><g transform="matrix(1,0,0,0.3499999940395355,-1.563018798828125,259.63751220703125)" opacity="1" style="display: block;"><g opacity="1" transform="matrix(1,0,0,1,256.57501220703125,420.7040100097656)"><path fill="url(#__lottie_element_407)" fill-opacity="1" d=" M239.65,-2.86 C239.29,50.27 221.4,98.5 191.43,140.49 C191.43,140.49 157.93,107.22 131.31,92.86 C131.31,92.86 149.76,186.28 149.76,186.28 C108.31,222.07 55.62,244.14 -1.61,243.74 C-43.03,243.46 -81.91,231.74 -115.76,211.74 C-190.05,167.84 -240.1,84.06 -239.49,-6.14 C-238.59,-137.44 -130.67,-232.65 1.64,-231.74 C133.95,-230.84 240.55,-134.17 239.65,-2.86z"></path><g opacity="1" transform="matrix(0.999976634979248,0.006839444860816002,-0.006839444860816002,0.999976634979248,-253.63829040527344,-422.4948425292969)"></g></g><g opacity="1" transform="matrix(1,0,0,1,0,0)"><g opacity="0.2" transform="matrix(1,0,0,1,214.55999755859375,423.8429870605469)"><path stroke="url(#__lottie_element_408)" stroke-linecap="round" stroke-linejoin="round" fill-opacity="0" stroke-opacity="1" stroke-width="18" d=" M183.0570068359375,181.3459930419922 C144.79299926757812,214.00900268554688 95.12300109863281,224.6739959716797 42.38999938964844,224.6739959716797 C2.2320001125335693,224.6739959716797 -35.45199966430664,213.13299560546875 -68.0270004272461,193.3419952392578 C-135.6300048828125,152.27000427246094 -181.2220001220703,75.66799926757812 -181.2220001220703,-7.0370001792907715 C-181.2220001220703,-129.593994140625 -81.10800170898438,-219.14500427246094 42.38999938964844,-219.14500427246094 C165.88800048828125,-219.14500427246094 266.00299072265625,-129.593994140625 266.00299072265625,-7.0370001792907715 C266.00299072265625,-7.0370001792907715 266.00299072265625,-7.0370001792907715 266.00299072265625,-7.0370001792907715 C266.00299072265625,38.66600036621094 252.63400268554688,89.62799835205078 228.8560028076172,128.16700744628906"></path></g><g opacity="0.5" transform="matrix(1,0,0,1,414.39898681640625,390.4159851074219)"><path fill="url(#__lottie_element_409)" fill-opacity="1" d=" M-182.24899291992188,-19.93400001525879 C-182.24899291992188,-19.93400001525879 -182.13299560546875,-19.920000076293945 -182.13299560546875,-19.920000076293945 C-182.13299560546875,-19.920000076293945 -181.83700561523438,-20.458999633789062 -181.83700561523438,-20.458999633789062 C-181.83700561523438,-20.458999633789062 -182.53700256347656,-20.170000076293945 -182.53700256347656,-20.170000076293945 C-182.53700256347656,-20.170000076293945 -182.24899291992188,-19.93400001525879 -182.24899291992188,-19.93400001525879z M81.7490005493164,25.839000701904297 C81.7490005493164,50.319000244140625 78.02100372314453,73.81300354003906 71.08499908447266,96.11799621582031 C66.24299621582031,22.996999740600586 0.7730000019073486,-40.832000732421875 -61.624000549316406,5.309999942779541 C-61.624000549316406,5.309999942779541 -88.52899932861328,-192.2469940185547 -88.52899932861328,-192.2469940185547 C9.993000030517578,-165.302001953125 81.7490005493164,-81.56600189208984 81.7490005493164,25.839000701904297z"></path></g><g opacity="0.5" transform="matrix(1,0,0,1,106.8479995727539,416.9590148925781)"><path fill="url(#__lottie_element_410)" fill-opacity="1" d=" M125.302001953125,-46.47700119018555 C125.302001953125,-46.47700119018555 125.41799926757812,-46.46200180053711 125.41799926757812,-46.46200180053711 C125.41799926757812,-46.46200180053711 125.71499633789062,-47.000999450683594 125.71499633789062,-47.000999450683594 C125.71499633789062,-47.000999450683594 125.01399993896484,-46.7130012512207 125.01399993896484,-46.7130012512207 C125.01399993896484,-46.7130012512207 125.302001953125,-46.47700119018555 125.302001953125,-46.47700119018555z M39.73099899291992,218.7760009765625 C-37.2400016784668,176.16799926757812 -89.84700012207031,91.24199676513672 -89.84700012207031,-0.703000009059906 C-89.84700012207031,-109.90599822998047 -15.668000221252441,-194.62899780273438 85.41100311279297,-220.0659942626953 C85.41100311279297,-220.0659942626953 96.27899932861328,-205.41900634765625 96.27899932861328,-205.41900634765625 C96.27899932861328,-205.41900634765625 40.566001892089844,-1.8919999599456787 40.566001892089844,-1.8919999599456787 C26.299999237060547,-1.9639999866485596 13.329999923706055,5.098999977111816 3.509999990463257,17.33799934387207 C-27.19099998474121,53.25899887084961 -30.992000579833984,137.2209930419922 39.73099899291992,218.7760009765625z"></path></g></g><g opacity="1" transform="matrix(1,0,0,1,256.57501220703125,420.7040100097656)"><path stroke="url(#__lottie_element_411)" stroke-linecap="round" stroke-linejoin="round" fill-opacity="0" stroke-opacity="1" stroke-width="18" d=" M239.72,-2.61 C239.35,50.52 221.46,98.75 191.5,140.74 C191.5,140.74 158,107.47 131.38,93.11 C131.38,93.11 149.82,186.53 149.82,186.53 C108.37,222.32 55.68,244.39 -1.55,243.99 C-42.66,243.71 -81.28,232.16 -114.95,212.42 C-189.65,168.65 -240.04,84.62 -239.42,-5.89 C-238.52,-137.19 -130.61,-232.4 1.7,-231.49 C134.01,-230.59 240.61,-133.92 239.72,-2.61z"></path><g opacity="1" transform="matrix(0.999976634979248,0.006839444860816002,-0.006839444860816002,0.999976634979248,-253.57528686523438,-422.2448425292969)"></g></g></g><g style="display: none;"><g><path stroke-linecap="round" stroke-linejoin="round" fill-opacity="0"></path><path stroke="url(#__lottie_element_403)" stroke-linecap="round" stroke-linejoin="round" fill-opacity="0"></path></g></g><g transform="matrix(1,0,0,1,0,-9)" opacity="1" style="display: block;"><g opacity="1" transform="matrix(1,0,0,1,257.08099365234375,232.5279998779297)"><path fill="url(#__lottie_element_328)" fill-opacity="1" d=" M78.15399932861328,-149.3209991455078 C78.15399932861328,-131.56100463867188 118.33499908447266,-70.01200103759766 113.9520034790039,-43.76100158691406 C111.25900268554688,-27.558000564575195 89.69599914550781,26.43199920654297 94.41500091552734,41.47100067138672 C97.9800033569336,52.83100128173828 127.28500366210938,115.43599700927734 140.24600219726562,151.74400329589844 C140.70199584960938,153.02000427246094 140.57200622558594,154.4320068359375 140.73500061035156,155.78900146484375 C140.73500061035156,182.88099670410156 77.69599914550781,207.62399291992188 -0.06300000101327896,207.62399291992188 C-77.83599853515625,207.62399291992188 -140.86199951171875,182.88099670410156 -140.86199951171875,155.78900146484375 C-141.906005859375,95.81700134277344 -103.06600189208984,7.067999839782715 -96.85099792480469,2.2909998893737793 C-84.58100128173828,-7.138999938964844 -10.380000114440918,-57.935001373291016 -10.380000114440918,-66.68900299072266 C-10.380000114440918,-75.44300079345703 0.4650000035762787,-172.96499633789062 22.547000885009766,-185.8699951171875 C46.111000061035156,-199.64100646972656 136.48800659179688,-213.58200073242188 140.78599548339844,-204.9709930419922 C143.74400329589844,-199.04299926757812 78.15399932861328,-167.08099365234375 78.15399932861328,-149.3209991455078z"></path></g></g><g transform="matrix(1,0,0,1,0,-9)" opacity="1" style="display: block;"><g opacity="0.3" transform="matrix(1,0,0,1,257.00799560546875,320.5539855957031)"><path fill="url(#__lottie_element_393)" fill-opacity="1" d=" M140.80999755859375,67.76300048828125 C140.80999755859375,68.11900329589844 140.79800415039062,68.4739990234375 140.7760009765625,68.83000183105469 C140.7760009765625,68.83000183105469 115.95500183105469,96.50800323486328 115.95500183105469,96.50800323486328 C90.55599975585938,110.13600158691406 48.09199905395508,119.59600067138672 0.004999999888241291,119.59600067138672 C-77.76200103759766,119.59600067138672 -140.78900146484375,94.85199737548828 -140.78900146484375,67.76300048828125 C-141.83399963378906,7.793000221252441 -102.99600219726562,-80.95700073242188 -96.78199768066406,-85.73699951171875 C-92.802001953125,-88.79399871826172 -66.06300354003906,-96.18599700927734 -53.7130012512207,-105.10099792480469 C-172.8800048828125,-33.104000091552734 -31.69700050354004,0 109.79900360107422,-119.59600067138672 C105.98699951171875,-110.0250015258789 94.29000091552734,-50.90599822998047 95.73500061035156,-46.30400085449219 C99.3030014038086,-34.94300079345703 127.36000061035156,27.410999298095703 140.3209991455078,63.715999603271484 C140.7760009765625,64.99400329589844 140.64300537109375,66.40699768066406 140.80999755859375,67.76300048828125z"></path></g><g opacity="0.5" transform="matrix(1,0,0,1,248.77200317382812,185.03799438476562)"><path fill="url(#__lottie_element_394)" fill-opacity="1" d=" M1.9390000104904175,-53.61800003051758 C-4.585000038146973,-24.312999725341797 72.51200103759766,-34.76900100708008 76.75199890136719,-28.375 C86.64700317382812,-13.456000328063965 -7.9670000076293945,-2.006999969482422 -77.46900177001953,53.61800003051758 C-77.46900177001953,53.61800003051758 -2.071000099182129,-19.198999404907227 -2.071000099182129,-19.198999404907227 C-2.071000099182129,-19.198999404907227 1.9390000104904175,-53.61800003051758 1.9390000104904175,-53.61800003051758z"></path></g><g opacity="0.3" transform="matrix(1,0,0,1,255.31700134277344,168.70799255371094)"><path stroke="url(#__lottie_element_395)" stroke-linecap="round" stroke-linejoin="round" fill-opacity="0" stroke-opacity="1" stroke-width="18" d=" M-133.21499633789062,171.3820037841797 C-133.21499633789062,171.3820037841797 -91.63600158691406,72.48799896240234 -84.01499938964844,69.947998046875 C-76.39399719238281,67.40799713134766 1.8459999561309814,11.956000328063965 3.878000020980835,5.88100004196167 C5.909999847412109,-0.1940000057220459 16.684999465942383,-97.21299743652344 30.80500030517578,-107.9010009765625 C47.19499969482422,-120.30699920654297 122.46499633789062,-130.1320037841797 122.46499633789062,-130.1320037841797"></path></g><g opacity="0.2" transform="matrix(1,0,0,1,344.81298828125,224.84800720214844)"><path stroke="url(#__lottie_element_396)" stroke-linecap="round" stroke-linejoin="round" fill-opacity="0" stroke-opacity="1" stroke-width="18" d=" M26.280000686645508,120.22899627685547 C26.280000686645508,120.22899627685547 -7.242000102996826,62.71200180053711 -9.20199966430664,46.86600112915039 C-11.161999702453613,31.020000457763672 10.409000396728516,-25.155000686645508 14.515000343322754,-47.92300033569336 C16.833999633789062,-60.78200149536133 -6.5289998054504395,-129.22900390625 -6.5289998054504395,-129.22900390625"></path></g><g opacity="1" transform="matrix(1,0,0,1,257.08099365234375,232.5279998779297)"><path stroke="url(#__lottie_element_397)" stroke-linecap="round" stroke-linejoin="round" fill-opacity="0" stroke-opacity="1" stroke-width="18" d=" M78.15399932861328,-149.3209991455078 C78.15399932861328,-131.56100463867188 118.33499908447266,-70.01200103759766 113.9520034790039,-43.76100158691406 C111.25900268554688,-27.558000564575195 89.69599914550781,26.43199920654297 94.41500091552734,41.47100067138672 C97.9800033569336,52.83100128173828 127.28500366210938,115.43599700927734 140.24600219726562,151.74400329589844 C140.70199584960938,153.02000427246094 140.57200622558594,154.4320068359375 140.73500061035156,155.78900146484375 C140.73500061035156,182.88099670410156 77.69599914550781,207.62399291992188 -0.06300000101327896,207.62399291992188 C-77.83599853515625,207.62399291992188 -140.86199951171875,182.88099670410156 -140.86199951171875,155.78900146484375 C-141.906005859375,95.81700134277344 -103.06600189208984,7.067999839782715 -96.85099792480469,2.2909998893737793 C-84.58100128173828,-7.138999938964844 -10.380000114440918,-57.935001373291016 -10.380000114440918,-66.68900299072266 C-10.380000114440918,-75.44300079345703 0.4650000035762787,-172.96499633789062 22.547000885009766,-185.8699951171875 C46.111000061035156,-199.64100646972656 136.48800659179688,-213.58200073242188 140.78599548339844,-204.9709930419922 C143.74400329589844,-199.04299926757812 78.15399932861328,-167.08099365234375 78.15399932861328,-149.3209991455078z"></path></g><g opacity="1" transform="matrix(1,0,0,1,0,0)"><g opacity="1" transform="matrix(1,0,0,1,257.0069885253906,389.7120056152344)"><path fill="url(#__lottie_element_398)" fill-opacity="1" d=" M140.80999755859375,-1.3949999809265137 C140.80999755859375,25.694000244140625 77.77200317382812,50.4379997253418 0.004999999888241291,50.4379997253418 C-77.76200103759766,50.4379997253418 -140.78900146484375,25.694000244140625 -140.78900146484375,-1.3949999809265137 C-141.05599975585938,-16.51300048828125 -138.77699279785156,-33.4640007019043 -135.13099670410156,-50.4379997253418 C-135.13099670410156,-50.4379997253418 -0.5740000009536743,13.850000381469727 123.3239974975586,-49.89899826049805 C131.7270050048828,-34.42599868774414 135.92999267578125,-17.735000610351562 140.3209991455078,-5.440999984741211 C140.7760009765625,-4.163000106811523 140.64300537109375,-2.750999927520752 140.80999755859375,-1.3949999809265137z"></path></g><g opacity="0.2" transform="matrix(1,0,0,1,257.0069885253906,403.44000244140625)"><path fill="rgb(51,27,11)" fill-opacity="1" d=" M140.81100463867188,-15.119999885559082 C140.81100463867188,11.970000267028809 77.77100372314453,36.709999084472656 0.0010000000474974513,36.709999084472656 C-77.75900268554688,36.709999084472656 -140.78900146484375,11.970000267028809 -140.78900146484375,-15.119999885559082 C-140.94900512695312,-23.81999969482422 -140.25900268554688,-27.139999389648438 -138.93899536132812,-36.709999084472656 C-128.00900268554688,-12.960000038146973 -69.96900177001953,7.079999923706055 0.0010000000474974513,7.079999923706055 C62.30099868774414,7.079999923706055 117.64099884033203,-10.050000190734863 136.21099853515625,-30.299999237060547 C138.83099365234375,-24.639999389648438 138.5919952392578,-24.040000915527344 140.32200622558594,-19.170000076293945 C140.78199768066406,-17.889999389648438 140.64100646972656,-16.479999542236328 140.81100463867188,-15.119999885559082z"></path></g><g opacity="1" transform="matrix(1,0,0,1,257.0069885253906,389.7120056152344)"><path stroke="url(#__lottie_element_399)" stroke-linecap="round" stroke-linejoin="round" fill-opacity="0" stroke-opacity="1" stroke-width="18" d=" M140.80999755859375,-1.3949999809265137 C140.80999755859375,25.694000244140625 77.77200317382812,50.4379997253418 0.004999999888241291,50.4379997253418 C-77.76200103759766,50.4379997253418 -140.78900146484375,25.694000244140625 -140.78900146484375,-1.3949999809265137 C-141.05599975585938,-16.51300048828125 -138.77699279785156,-33.4640007019043 -135.13099670410156,-50.4379997253418 C-135.13099670410156,-50.4379997253418 -0.5740000009536743,13.850000381469727 123.3239974975586,-49.89899826049805 C131.7270050048828,-34.42599868774414 135.92999267578125,-17.735000610351562 140.3209991455078,-5.440999984741211 C140.7760009765625,-4.163000106811523 140.64300537109375,-2.750999927520752 140.80999755859375,-1.3949999809265137z"></path></g><g opacity="0.5" transform="matrix(1,0,0,1,257.0069885253906,389.7120056152344)"><path stroke-linecap="round" stroke-linejoin="round" fill-opacity="0" stroke="rgb(21,11,51)" stroke-opacity="1" stroke-width="18" d=" M123.3239974975586,-49.89899826049805 C131.7270050048828,-34.42599868774414 135.92999267578125,-17.735000610351562 140.3209991455078,-5.440999984741211 C140.7760009765625,-4.163000106811523 140.64300537109375,-2.750999927520752 140.80999755859375,-1.3949999809265137 C140.80999755859375,25.694000244140625 77.77200317382812,50.4379997253418 0.004999999888241291,50.4379997253418 C-77.76200103759766,50.4379997253418 -140.78900146484375,25.694000244140625 -140.78900146484375,-1.3949999809265137 C-141.05599975585938,-16.51300048828125 -138.77699279785156,-33.4640007019043 -135.13099670410156,-50.4379997253418"></path></g></g></g><g style="display: none;"><g><path stroke-linecap="round" stroke-linejoin="round" fill-opacity="0"></path><path stroke="url(#__lottie_element_389)" stroke-linecap="round" stroke-linejoin="round" fill-opacity="0"></path></g></g><g style="display: none;"><g><path fill="url(#__lottie_element_385)"></path><path stroke-linecap="butt" stroke-linejoin="miter" fill-opacity="0" stroke-miterlimit="4"></path></g></g><g mask="url(#__lottie_element_374_1)" style="display: none;"><g><g><path fill="url(#__lottie_element_381)"></path></g><g><path stroke-linecap="round" stroke-linejoin="round" fill-opacity="0"></path></g><g><path stroke-linecap="round" stroke-linejoin="round" fill-opacity="0"></path></g><g><path stroke-linecap="round" stroke-linejoin="round" fill-opacity="0"></path></g><g><path stroke-linecap="round" stroke-linejoin="round" fill-opacity="0"></path></g></g></g><g mask="url(#__lottie_element_366_1)" style="display: none;"><g><g><path fill="url(#__lottie_element_373)"></path></g><g><path stroke-linecap="round" stroke-linejoin="round" fill-opacity="0"></path></g><g><path stroke-linecap="round" stroke-linejoin="round" fill-opacity="0"></path></g><g><path stroke-linecap="round" stroke-linejoin="round" fill-opacity="0"></path></g><g><path stroke-linecap="round" stroke-linejoin="round" fill-opacity="0"></path></g></g></g><g style="display: none;"><g><path stroke-linecap="butt" stroke-linejoin="miter" fill-opacity="0" stroke-miterlimit="4"></path></g></g><g transform="matrix(-0.8556116223335266,0.5727171897888184,0.5727171897888184,0.8556116223335266,468.6815185546875,-159.138916015625)" opacity="1" style="display: block;"><g opacity="1" transform="matrix(1,0,0,1,30.001007080078125,-21.717010498046875)"><g opacity="1" transform="matrix(1,0,0,1,439.02801513671875,214.2779998779297)"><path fill="rgb(44,46,146)" fill-opacity="1" d=" M-3.2019999027252197,8.53600025177002 C0.20399999618530273,10.602999687194824 8.708999633789062,4.291999816894531 8.645000457763672,0.6980000138282776 C8.600000381469727,-1.8220000267028809 0.5040000081062317,-3.239000082015991 0.5040000081062317,-3.239000082015991 C0.5040000081062317,-3.239000082015991 2.180000066757202,-7.689000129699707 0.9440000057220459,-8.52400016784668 C-1.621999979019165,-10.258000373840332 -8.904000282287598,-6.223999977111816 -8.637999534606934,-3.4140000343322754 C-8.531000137329102,-2.2790000438690186 -4.333000183105469,-0.8830000162124634 -4.333000183105469,-0.8830000162124634 C-4.333000183105469,-0.8830000162124634 -5.414999961853027,7.192999839782715 -3.2019999027252197,8.53600025177002z"></path><path stroke-linecap="butt" stroke-linejoin="miter" fill-opacity="0" stroke-miterlimit="10" stroke="rgb(16,17,29)" stroke-opacity="1" stroke-width="3" d=" M-3.2019999027252197,8.53600025177002 C0.20399999618530273,10.602999687194824 8.708999633789062,4.291999816894531 8.645000457763672,0.6980000138282776 C8.600000381469727,-1.8220000267028809 0.5040000081062317,-3.239000082015991 0.5040000081062317,-3.239000082015991 C0.5040000081062317,-3.239000082015991 2.180000066757202,-7.689000129699707 0.9440000057220459,-8.52400016784668 C-1.621999979019165,-10.258000373840332 -8.904000282287598,-6.223999977111816 -8.637999534606934,-3.4140000343322754 C-8.531000137329102,-2.2790000438690186 -4.333000183105469,-0.8830000162124634 -4.333000183105469,-0.8830000162124634 C-4.333000183105469,-0.8830000162124634 -5.414999961853027,7.192999839782715 -3.2019999027252197,8.53600025177002z"></path></g><g opacity="1" transform="matrix(1,0,0,1,425.3890075683594,212.15199279785156)"><path fill="rgb(44,46,146)" fill-opacity="1" d=" M1.5709999799728394,-8.758999824523926 C-2.121999979019165,-10.253999710083008 -9.505999565124512,-2.6600000858306885 -8.866999626159668,0.8769999742507935 C-8.418999671936035,3.3570001125335693 -0.20000000298023224,3.4579999446868896 -0.20000000298023224,3.4579999446868896 C-0.20000000298023224,3.4579999446868896 -1.1410000324249268,8.119000434875488 0.21299999952316284,8.744999885559082 C3.0230000019073486,10.045000076293945 9.5649995803833,4.895999908447266 8.85200023651123,2.1649999618530273 C8.564000129699707,1.062000036239624 4.197000026702881,0.3569999933242798 4.197000026702881,0.3569999933242798 C4.197000026702881,0.3569999933242798 3.9709999561309814,-7.788000106811523 1.5709999799728394,-8.758999824523926z"></path><path stroke-linecap="butt" stroke-linejoin="miter" fill-opacity="0" stroke-miterlimit="10" stroke="rgb(16,17,29)" stroke-opacity="1" stroke-width="3" d=" M1.5709999799728394,-8.758999824523926 C-2.121999979019165,-10.253999710083008 -9.505999565124512,-2.6600000858306885 -8.866999626159668,0.8769999742507935 C-8.418999671936035,3.3570001125335693 -0.20000000298023224,3.4579999446868896 -0.20000000298023224,3.4579999446868896 C-0.20000000298023224,3.4579999446868896 -1.1410000324249268,8.119000434875488 0.21299999952316284,8.744999885559082 C3.0230000019073486,10.045000076293945 9.5649995803833,4.895999908447266 8.85200023651123,2.1649999618530273 C8.564000129699707,1.062000036239624 4.197000026702881,0.3569999933242798 4.197000026702881,0.3569999933242798 C4.197000026702881,0.3569999933242798 3.9709999561309814,-7.788000106811523 1.5709999799728394,-8.758999824523926z"></path></g></g><g opacity="1" transform="matrix(1,0,0,1,14.47100830078125,-11.001007080078125)"><g opacity="1" transform="matrix(1,0,0,1,439.02801513671875,214.2779998779297)"><path fill="rgb(44,46,146)" fill-opacity="1" d=" M-3.2019999027252197,8.53600025177002 C0.20399999618530273,10.602999687194824 8.708999633789062,4.291999816894531 8.645000457763672,0.6980000138282776 C8.600000381469727,-1.8220000267028809 0.5040000081062317,-3.239000082015991 0.5040000081062317,-3.239000082015991 C0.5040000081062317,-3.239000082015991 2.180000066757202,-7.689000129699707 0.9440000057220459,-8.52400016784668 C-1.621999979019165,-10.258000373840332 -8.904000282287598,-6.223999977111816 -8.637999534606934,-3.4140000343322754 C-8.531000137329102,-2.2790000438690186 -4.333000183105469,-0.8830000162124634 -4.333000183105469,-0.8830000162124634 C-4.333000183105469,-0.8830000162124634 -5.414999961853027,7.192999839782715 -3.2019999027252197,8.53600025177002z"></path><path stroke-linecap="butt" stroke-linejoin="miter" fill-opacity="0" stroke-miterlimit="10" stroke="rgb(16,17,29)" stroke-opacity="1" stroke-width="3" d=" M-3.2019999027252197,8.53600025177002 C0.20399999618530273,10.602999687194824 8.708999633789062,4.291999816894531 8.645000457763672,0.6980000138282776 C8.600000381469727,-1.8220000267028809 0.5040000081062317,-3.239000082015991 0.5040000081062317,-3.239000082015991 C0.5040000081062317,-3.239000082015991 2.180000066757202,-7.689000129699707 0.9440000057220459,-8.52400016784668 C-1.621999979019165,-10.258000373840332 -8.904000282287598,-6.223999977111816 -8.637999534606934,-3.4140000343322754 C-8.531000137329102,-2.2790000438690186 -4.333000183105469,-0.8830000162124634 -4.333000183105469,-0.8830000162124634 C-4.333000183105469,-0.8830000162124634 -5.414999961853027,7.192999839782715 -3.2019999027252197,8.53600025177002z"></path></g><g opacity="1" transform="matrix(1,0,0,1,425.3890075683594,212.15199279785156)"><path fill="rgb(44,46,146)" fill-opacity="1" d=" M1.5709999799728394,-8.758999824523926 C-2.121999979019165,-10.253999710083008 -9.505999565124512,-2.6600000858306885 -8.866999626159668,0.8769999742507935 C-8.418999671936035,3.3570001125335693 -0.20000000298023224,3.4579999446868896 -0.20000000298023224,3.4579999446868896 C-0.20000000298023224,3.4579999446868896 -1.1410000324249268,8.119000434875488 0.21299999952316284,8.744999885559082 C3.0230000019073486,10.045000076293945 9.5649995803833,4.895999908447266 8.85200023651123,2.1649999618530273 C8.564000129699707,1.062000036239624 4.197000026702881,0.3569999933242798 4.197000026702881,0.3569999933242798 C4.197000026702881,0.3569999933242798 3.9709999561309814,-7.788000106811523 1.5709999799728394,-8.758999824523926z"></path><path stroke-linecap="butt" stroke-linejoin="miter" fill-opacity="0" stroke-miterlimit="10" stroke="rgb(16,17,29)" stroke-opacity="1" stroke-width="3" d=" M1.5709999799728394,-8.758999824523926 C-2.121999979019165,-10.253999710083008 -9.505999565124512,-2.6600000858306885 -8.866999626159668,0.8769999742507935 C-8.418999671936035,3.3570001125335693 -0.20000000298023224,3.4579999446868896 -0.20000000298023224,3.4579999446868896 C-0.20000000298023224,3.4579999446868896 -1.1410000324249268,8.119000434875488 0.21299999952316284,8.744999885559082 C3.0230000019073486,10.045000076293945 9.5649995803833,4.895999908447266 8.85200023651123,2.1649999618530273 C8.564000129699707,1.062000036239624 4.197000026702881,0.3569999933242798 4.197000026702881,0.3569999933242798 C4.197000026702881,0.3569999933242798 3.9709999561309814,-7.788000106811523 1.5709999799728394,-8.758999824523926z"></path></g></g><g opacity="1" transform="matrix(1,0,0,1,439.02801513671875,214.2779998779297)"><path fill="rgb(44,46,146)" fill-opacity="1" d=" M-3.2019999027252197,8.53600025177002 C0.20399999618530273,10.602999687194824 8.708999633789062,4.291999816894531 8.645000457763672,0.6980000138282776 C8.600000381469727,-1.8220000267028809 0.5040000081062317,-3.239000082015991 0.5040000081062317,-3.239000082015991 C0.5040000081062317,-3.239000082015991 2.180000066757202,-7.689000129699707 0.9440000057220459,-8.52400016784668 C-1.621999979019165,-10.258000373840332 -8.904000282287598,-6.223999977111816 -8.637999534606934,-3.4140000343322754 C-8.531000137329102,-2.2790000438690186 -4.333000183105469,-0.8830000162124634 -4.333000183105469,-0.8830000162124634 C-4.333000183105469,-0.8830000162124634 -5.414999961853027,7.192999839782715 -3.2019999027252197,8.53600025177002z"></path><path stroke-linecap="butt" stroke-linejoin="miter" fill-opacity="0" stroke-miterlimit="10" stroke="rgb(16,17,29)" stroke-opacity="1" stroke-width="3" d=" M-3.2019999027252197,8.53600025177002 C0.20399999618530273,10.602999687194824 8.708999633789062,4.291999816894531 8.645000457763672,0.6980000138282776 C8.600000381469727,-1.8220000267028809 0.5040000081062317,-3.239000082015991 0.5040000081062317,-3.239000082015991 C0.5040000081062317,-3.239000082015991 2.180000066757202,-7.689000129699707 0.9440000057220459,-8.52400016784668 C-1.621999979019165,-10.258000373840332 -8.904000282287598,-6.223999977111816 -8.637999534606934,-3.4140000343322754 C-8.531000137329102,-2.2790000438690186 -4.333000183105469,-0.8830000162124634 -4.333000183105469,-0.8830000162124634 C-4.333000183105469,-0.8830000162124634 -5.414999961853027,7.192999839782715 -3.2019999027252197,8.53600025177002z"></path></g><g opacity="1" transform="matrix(1,0,0,1,425.3890075683594,212.15199279785156)"><path fill="rgb(44,46,146)" fill-opacity="1" d=" M1.5709999799728394,-8.758999824523926 C-2.121999979019165,-10.253999710083008 -9.505999565124512,-2.6600000858306885 -8.866999626159668,0.8769999742507935 C-8.418999671936035,3.3570001125335693 -0.20000000298023224,3.4579999446868896 -0.20000000298023224,3.4579999446868896 C-0.20000000298023224,3.4579999446868896 -1.1410000324249268,8.119000434875488 0.21299999952316284,8.744999885559082 C3.0230000019073486,10.045000076293945 9.5649995803833,4.895999908447266 8.85200023651123,2.1649999618530273 C8.564000129699707,1.062000036239624 4.197000026702881,0.3569999933242798 4.197000026702881,0.3569999933242798 C4.197000026702881,0.3569999933242798 3.9709999561309814,-7.788000106811523 1.5709999799728394,-8.758999824523926z"></path><path stroke-linecap="butt" stroke-linejoin="miter" fill-opacity="0" stroke-miterlimit="10" stroke="rgb(16,17,29)" stroke-opacity="1" stroke-width="3" d=" M1.5709999799728394,-8.758999824523926 C-2.121999979019165,-10.253999710083008 -9.505999565124512,-2.6600000858306885 -8.866999626159668,0.8769999742507935 C-8.418999671936035,3.3570001125335693 -0.20000000298023224,3.4579999446868896 -0.20000000298023224,3.4579999446868896 C-0.20000000298023224,3.4579999446868896 -1.1410000324249268,8.119000434875488 0.21299999952316284,8.744999885559082 C3.0230000019073486,10.045000076293945 9.5649995803833,4.895999908447266 8.85200023651123,2.1649999618530273 C8.564000129699707,1.062000036239624 4.197000026702881,0.3569999933242798 4.197000026702881,0.3569999933242798 C4.197000026702881,0.3569999933242798 3.9709999561309814,-7.788000106811523 1.5709999799728394,-8.758999824523926z"></path></g><g opacity="1" transform="matrix(1,0,0,1,423.1570129394531,223.78799438476562)"><path fill="rgb(44,46,146)" fill-opacity="1" d=" M-3.2019999027252197,8.53600025177002 C0.20399999618530273,10.602999687194824 8.708999633789062,4.291999816894531 8.645000457763672,0.6980000138282776 C8.600000381469727,-1.8220000267028809 0.5040000081062317,-3.239000082015991 0.5040000081062317,-3.239000082015991 C0.5040000081062317,-3.239000082015991 2.180000066757202,-7.689000129699707 0.9440000057220459,-8.52400016784668 C-1.621999979019165,-10.258000373840332 -8.904000282287598,-6.223999977111816 -8.637999534606934,-3.4140000343322754 C-8.531000137329102,-2.2790000438690186 -4.333000183105469,-0.8830000162124634 -4.333000183105469,-0.8830000162124634 C-4.333000183105469,-0.8830000162124634 -5.414999961853027,7.192999839782715 -3.2019999027252197,8.53600025177002z"></path><path stroke-linecap="butt" stroke-linejoin="miter" fill-opacity="0" stroke-miterlimit="10" stroke="rgb(16,17,29)" stroke-opacity="1" stroke-width="3" d=" M-3.2019999027252197,8.53600025177002 C0.20399999618530273,10.602999687194824 8.708999633789062,4.291999816894531 8.645000457763672,0.6980000138282776 C8.600000381469727,-1.8220000267028809 0.5040000081062317,-3.239000082015991 0.5040000081062317,-3.239000082015991 C0.5040000081062317,-3.239000082015991 2.180000066757202,-7.689000129699707 0.9440000057220459,-8.52400016784668 C-1.621999979019165,-10.258000373840332 -8.904000282287598,-6.223999977111816 -8.637999534606934,-3.4140000343322754 C-8.531000137329102,-2.2790000438690186 -4.333000183105469,-0.8830000162124634 -4.333000183105469,-0.8830000162124634 C-4.333000183105469,-0.8830000162124634 -5.414999961853027,7.192999839782715 -3.2019999027252197,8.53600025177002z"></path></g><g opacity="1" transform="matrix(1,0,0,1,410.4700012207031,222.927001953125)"><path fill="rgb(44,46,146)" fill-opacity="1" d=" M3.1679999828338623,-8.543000221252441 C-0.24500000476837158,-10.597999572753906 -8.727999687194824,-4.257999897003174 -8.652000427246094,-0.6639999747276306 C-8.598999977111816,1.8550000190734863 -0.4970000088214874,3.244999885559082 -0.4970000088214874,3.244999885559082 C-0.4970000088214874,3.244999885559082 -2.1579999923706055,7.699999809265137 -0.9190000295639038,8.531000137329102 C1.652999997138977,10.255999565124512 8.920999526977539,6.197000026702881 8.645000457763672,3.388000011444092 C8.534000396728516,2.253999948501587 4.330999851226807,0.871999979019165 4.330999851226807,0.871999979019165 C4.330999851226807,0.871999979019165 5.386000156402588,-7.206999778747559 3.1679999828338623,-8.543000221252441z"></path><path stroke-linecap="butt" stroke-linejoin="miter" fill-opacity="0" stroke-miterlimit="10" stroke="rgb(16,17,29)" stroke-opacity="1" stroke-width="3" d=" M3.1679999828338623,-8.543000221252441 C-0.24500000476837158,-10.597999572753906 -8.727999687194824,-4.257999897003174 -8.652000427246094,-0.6639999747276306 C-8.598999977111816,1.8550000190734863 -0.4970000088214874,3.244999885559082 -0.4970000088214874,3.244999885559082 C-0.4970000088214874,3.244999885559082 -2.1579999923706055,7.699999809265137 -0.9190000295639038,8.531000137329102 C1.652999997138977,10.255999565124512 8.920999526977539,6.197000026702881 8.645000457763672,3.388000011444092 C8.534000396728516,2.253999948501587 4.330999851226807,0.871999979019165 4.330999851226807,0.871999979019165 C4.330999851226807,0.871999979019165 5.386000156402588,-7.206999778747559 3.1679999828338623,-8.543000221252441z"></path></g><g opacity="1" transform="matrix(1,0,0,1,405.6659851074219,235.0989990234375)"><path fill="rgb(44,46,146)" fill-opacity="1" d=" M-3.2019999027252197,8.53600025177002 C0.20399999618530273,10.602999687194824 8.708999633789062,4.291999816894531 8.645000457763672,0.6980000138282776 C8.600000381469727,-1.8220000267028809 0.5040000081062317,-3.239000082015991 0.5040000081062317,-3.239000082015991 C0.5040000081062317,-3.239000082015991 2.180000066757202,-7.689000129699707 0.9440000057220459,-8.52400016784668 C-1.621999979019165,-10.258000373840332 -8.904000282287598,-6.223999977111816 -8.637999534606934,-3.4140000343322754 C-8.531000137329102,-2.2790000438690186 -4.333000183105469,-0.8830000162124634 -4.333000183105469,-0.8830000162124634 C-4.333000183105469,-0.8830000162124634 -5.414999961853027,7.192999839782715 -3.2019999027252197,8.53600025177002z"></path><path stroke-linecap="butt" stroke-linejoin="miter" fill-opacity="0" stroke-miterlimit="10" stroke="rgb(16,17,29)" stroke-opacity="1" stroke-width="3" d=" M-3.2019999027252197,8.53600025177002 C0.20399999618530273,10.602999687194824 8.708999633789062,4.291999816894531 8.645000457763672,0.6980000138282776 C8.600000381469727,-1.8220000267028809 0.5040000081062317,-3.239000082015991 0.5040000081062317,-3.239000082015991 C0.5040000081062317,-3.239000082015991 2.180000066757202,-7.689000129699707 0.9440000057220459,-8.52400016784668 C-1.621999979019165,-10.258000373840332 -8.904000282287598,-6.223999977111816 -8.637999534606934,-3.4140000343322754 C-8.531000137329102,-2.2790000438690186 -4.333000183105469,-0.8830000162124634 -4.333000183105469,-0.8830000162124634 C-4.333000183105469,-0.8830000162124634 -5.414999961853027,7.192999839782715 -3.2019999027252197,8.53600025177002z"></path></g><g opacity="1" transform="matrix(1,0,0,1,392.63299560546875,233.0330047607422)"><path fill="rgb(44,46,146)" fill-opacity="1" d=" M4.1519999504089355,-8.295000076293945 C0.9629999995231628,-10.682999610900879 -8.114999771118164,-5.22599983215332 -8.399999618530273,-1.6430000066757202 C-8.600000381469727,0.8690000176429749 -0.6779999732971191,3.065000057220459 -0.6779999732971191,3.065000057220459 C-0.6779999732971191,3.065000057220459 -2.7780001163482666,7.330999851226807 -1.628999948501587,8.281999588012695 C0.7559999823570251,10.256999969482422 8.395000457763672,6.947999954223633 8.402999877929688,4.125999927520752 C8.406000137329102,2.9860000610351562 4.363999843597412,1.1890000104904175 4.363999843597412,1.1890000104904175 C4.363999843597412,1.1890000104904175 6.223999977111816,-6.743000030517578 4.1519999504089355,-8.295000076293945z"></path><path stroke-linecap="butt" stroke-linejoin="miter" fill-opacity="0" stroke-miterlimit="10" stroke="rgb(16,17,29)" stroke-opacity="1" stroke-width="3" d=" M4.1519999504089355,-8.295000076293945 C0.9629999995231628,-10.682999610900879 -8.114999771118164,-5.22599983215332 -8.399999618530273,-1.6430000066757202 C-8.600000381469727,0.8690000176429749 -0.6779999732971191,3.065000057220459 -0.6779999732971191,3.065000057220459 C-0.6779999732971191,3.065000057220459 -2.7780001163482666,7.330999851226807 -1.628999948501587,8.281999588012695 C0.7559999823570251,10.256999969482422 8.395000457763672,6.947999954223633 8.402999877929688,4.125999927520752 C8.406000137329102,2.9860000610351562 4.363999843597412,1.1890000104904175 4.363999843597412,1.1890000104904175 C4.363999843597412,1.1890000104904175 6.223999977111816,-6.743000030517578 4.1519999504089355,-8.295000076293945z"></path></g><g opacity="1" transform="matrix(1,0,0,1,388.2760009765625,245.0030059814453)"><path fill="rgb(44,46,146)" fill-opacity="1" d=" M-3.2019999027252197,8.53600025177002 C0.20399999618530273,10.602999687194824 8.708999633789062,4.291999816894531 8.645000457763672,0.6980000138282776 C8.600000381469727,-1.8220000267028809 0.5040000081062317,-3.239000082015991 0.5040000081062317,-3.239000082015991 C0.5040000081062317,-3.239000082015991 2.180000066757202,-7.689000129699707 0.9440000057220459,-8.52400016784668 C-1.621999979019165,-10.258000373840332 -8.904000282287598,-6.223999977111816 -8.637999534606934,-3.4140000343322754 C-8.531000137329102,-2.2790000438690186 -4.333000183105469,-0.8830000162124634 -4.333000183105469,-0.8830000162124634 C-4.333000183105469,-0.8830000162124634 -5.414999961853027,7.192999839782715 -3.2019999027252197,8.53600025177002z"></path><path stroke-linecap="butt" stroke-linejoin="miter" fill-opacity="0" stroke-miterlimit="10" stroke="rgb(16,17,29)" stroke-opacity="1" stroke-width="3" d=" M-3.2019999027252197,8.53600025177002 C0.20399999618530273,10.602999687194824 8.708999633789062,4.291999816894531 8.645000457763672,0.6980000138282776 C8.600000381469727,-1.8220000267028809 0.5040000081062317,-3.239000082015991 0.5040000081062317,-3.239000082015991 C0.5040000081062317,-3.239000082015991 2.180000066757202,-7.689000129699707 0.9440000057220459,-8.52400016784668 C-1.621999979019165,-10.258000373840332 -8.904000282287598,-6.223999977111816 -8.637999534606934,-3.4140000343322754 C-8.531000137329102,-2.2790000438690186 -4.333000183105469,-0.8830000162124634 -4.333000183105469,-0.8830000162124634 C-4.333000183105469,-0.8830000162124634 -5.414999961853027,7.192999839782715 -3.2019999027252197,8.53600025177002z"></path></g><g opacity="1" transform="matrix(1,0,0,1,374.3840026855469,242.8719940185547)"><path fill="rgb(44,46,146)" fill-opacity="1" d=" M4.946000099182129,-8.02400016784668 C1.968999981880188,-10.67199993133545 -7.534999847412109,-5.999000072479248 -8.121000289916992,-2.453000068664551 C-8.531999588012695,0.032999999821186066 -0.824999988079071,2.8889999389648438 -0.824999988079071,2.8889999389648438 C-0.824999988079071,2.8889999389648438 -3.2769999504089355,6.961999893188477 -2.2119998931884766,8.006999969482422 C-0.0020000000949949026,10.175999641418457 7.889999866485596,7.5229997634887695 8.135000228881836,4.710999965667725 C8.234000205993652,3.575000047683716 4.357999801635742,1.444000005722046 4.357999801635742,1.444000005722046 C4.357999801635742,1.444000005722046 6.880000114440918,-6.302999973297119 4.946000099182129,-8.02400016784668z"></path><path stroke-linecap="butt" stroke-linejoin="miter" fill-opacity="0" stroke-miterlimit="10" stroke="rgb(16,17,29)" stroke-opacity="1" stroke-width="3" d=" M4.946000099182129,-8.02400016784668 C1.968999981880188,-10.67199993133545 -7.534999847412109,-5.999000072479248 -8.121000289916992,-2.453000068664551 C-8.531999588012695,0.032999999821186066 -0.824999988079071,2.8889999389648438 -0.824999988079071,2.8889999389648438 C-0.824999988079071,2.8889999389648438 -3.2769999504089355,6.961999893188477 -2.2119998931884766,8.006999969482422 C-0.0020000000949949026,10.175999641418457 7.889999866485596,7.5229997634887695 8.135000228881836,4.710999965667725 C8.234000205993652,3.575000047683716 4.357999801635742,1.444000005722046 4.357999801635742,1.444000005722046 C4.357999801635742,1.444000005722046 6.880000114440918,-6.302999973297119 4.946000099182129,-8.02400016784668z"></path></g><g opacity="1" transform="matrix(1,0,0,1,369.4809875488281,253.7779998779297)"><path fill="rgb(44,46,146)" fill-opacity="1" d=" M-5.539000034332275,7.7769999504089355 C-2.742000102996826,10.61400032043457 7.048999786376953,6.570000171661377 7.864999771118164,3.069999933242798 C8.437000274658203,0.6159999966621399 0.9319999814033508,-2.7360000610351562 0.9319999814033508,-2.7360000610351562 C0.9319999814033508,-2.7360000610351562 3.6440000534057617,-6.640999794006348 2.6500000953674316,-7.752999782562256 C0.5860000252723694,-10.060999870300293 -7.461999893188477,-7.928999900817871 -7.889999866485596,-5.138999938964844 C-8.062999725341797,-4.01200008392334 -4.334000110626221,-1.6330000162124634 -4.334000110626221,-1.6330000162124634 C-4.334000110626221,-1.6330000162124634 -7.35699987411499,5.934000015258789 -5.539000034332275,7.7769999504089355z"></path><path stroke-linecap="butt" stroke-linejoin="miter" fill-opacity="0" stroke-miterlimit="10" stroke="rgb(16,17,29)" stroke-opacity="1" stroke-width="3" d=" M-5.539000034332275,7.7769999504089355 C-2.742000102996826,10.61400032043457 7.048999786376953,6.570000171661377 7.864999771118164,3.069999933242798 C8.437000274658203,0.6159999966621399 0.9319999814033508,-2.7360000610351562 0.9319999814033508,-2.7360000610351562 C0.9319999814033508,-2.7360000610351562 3.6440000534057617,-6.640999794006348 2.6500000953674316,-7.752999782562256 C0.5860000252723694,-10.060999870300293 -7.461999893188477,-7.928999900817871 -7.889999866485596,-5.138999938964844 C-8.062999725341797,-4.01200008392334 -4.334000110626221,-1.6330000162124634 -4.334000110626221,-1.6330000162124634 C-4.334000110626221,-1.6330000162124634 -7.35699987411499,5.934000015258789 -5.539000034332275,7.7769999504089355z"></path></g><g opacity="1" transform="matrix(1,0,0,1,355.97601318359375,248.1790008544922)"><path fill="rgb(44,46,146)" fill-opacity="1" d=" M4.946000099182129,-8.02400016784668 C1.968999981880188,-10.67199993133545 -7.534999847412109,-5.999000072479248 -8.121000289916992,-2.453000068664551 C-8.531999588012695,0.032999999821186066 -0.824999988079071,2.8889999389648438 -0.824999988079071,2.8889999389648438 C-0.824999988079071,2.8889999389648438 -3.2769999504089355,6.961999893188477 -2.2119998931884766,8.006999969482422 C-0.0020000000949949026,10.175999641418457 7.889999866485596,7.5229997634887695 8.135000228881836,4.710999965667725 C8.234000205993652,3.575000047683716 4.357999801635742,1.444000005722046 4.357999801635742,1.444000005722046 C4.357999801635742,1.444000005722046 6.880000114440918,-6.302999973297119 4.946000099182129,-8.02400016784668z"></path><path stroke-linecap="butt" stroke-linejoin="miter" fill-opacity="0" stroke-miterlimit="10" stroke="rgb(16,17,29)" stroke-opacity="1" stroke-width="3" d=" M4.946000099182129,-8.02400016784668 C1.968999981880188,-10.67199993133545 -7.534999847412109,-5.999000072479248 -8.121000289916992,-2.453000068664551 C-8.531999588012695,0.032999999821186066 -0.824999988079071,2.8889999389648438 -0.824999988079071,2.8889999389648438 C-0.824999988079071,2.8889999389648438 -3.2769999504089355,6.961999893188477 -2.2119998931884766,8.006999969482422 C-0.0020000000949949026,10.175999641418457 7.889999866485596,7.5229997634887695 8.135000228881836,4.710999965667725 C8.234000205993652,3.575000047683716 4.357999801635742,1.444000005722046 4.357999801635742,1.444000005722046 C4.357999801635742,1.444000005722046 6.880000114440918,-6.302999973297119 4.946000099182129,-8.02400016784668z"></path></g><g opacity="1" transform="matrix(1,0,0,1,348.98699951171875,259.1579895019531)"><path fill="rgb(44,46,146)" fill-opacity="1" d=" M-5.539000034332275,7.7769999504089355 C-2.742000102996826,10.61400032043457 7.048999786376953,6.570000171661377 7.864999771118164,3.069999933242798 C8.437000274658203,0.6159999966621399 0.9319999814033508,-2.7360000610351562 0.9319999814033508,-2.7360000610351562 C0.9319999814033508,-2.7360000610351562 3.6440000534057617,-6.640999794006348 2.6500000953674316,-7.752999782562256 C0.5860000252723694,-10.060999870300293 -7.461999893188477,-7.928999900817871 -7.889999866485596,-5.138999938964844 C-8.062999725341797,-4.01200008392334 -4.334000110626221,-1.6330000162124634 -4.334000110626221,-1.6330000162124634 C-4.334000110626221,-1.6330000162124634 -7.35699987411499,5.934000015258789 -5.539000034332275,7.7769999504089355z"></path><path stroke-linecap="butt" stroke-linejoin="miter" fill-opacity="0" stroke-miterlimit="10" stroke="rgb(16,17,29)" stroke-opacity="1" stroke-width="3" d=" M-5.539000034332275,7.7769999504089355 C-2.742000102996826,10.61400032043457 7.048999786376953,6.570000171661377 7.864999771118164,3.069999933242798 C8.437000274658203,0.6159999966621399 0.9319999814033508,-2.7360000610351562 0.9319999814033508,-2.7360000610351562 C0.9319999814033508,-2.7360000610351562 3.6440000534057617,-6.640999794006348 2.6500000953674316,-7.752999782562256 C0.5860000252723694,-10.060999870300293 -7.461999893188477,-7.928999900817871 -7.889999866485596,-5.138999938964844 C-8.062999725341797,-4.01200008392334 -4.334000110626221,-1.6330000162124634 -4.334000110626221,-1.6330000162124634 C-4.334000110626221,-1.6330000162124634 -7.35699987411499,5.934000015258789 -5.539000034332275,7.7769999504089355z"></path></g><g opacity="1" transform="matrix(1,0,0,1,335.28900146484375,253.35000610351562)"><path fill="rgb(44,46,146)" fill-opacity="1" d=" M4.946000099182129,-8.02400016784668 C1.968999981880188,-10.67199993133545 -7.534999847412109,-5.999000072479248 -8.121000289916992,-2.453000068664551 C-8.531999588012695,0.032999999821186066 -0.824999988079071,2.8889999389648438 -0.824999988079071,2.8889999389648438 C-0.824999988079071,2.8889999389648438 -3.2769999504089355,6.961999893188477 -2.2119998931884766,8.006999969482422 C-0.0020000000949949026,10.175999641418457 7.889999866485596,7.5229997634887695 8.135000228881836,4.710999965667725 C8.234000205993652,3.575000047683716 4.357999801635742,1.444000005722046 4.357999801635742,1.444000005722046 C4.357999801635742,1.444000005722046 6.880000114440918,-6.302999973297119 4.946000099182129,-8.02400016784668z"></path><path stroke-linecap="butt" stroke-linejoin="miter" fill-opacity="0" stroke-miterlimit="10" stroke="rgb(16,17,29)" stroke-opacity="1" stroke-width="3" d=" M4.946000099182129,-8.02400016784668 C1.968999981880188,-10.67199993133545 -7.534999847412109,-5.999000072479248 -8.121000289916992,-2.453000068664551 C-8.531999588012695,0.032999999821186066 -0.824999988079071,2.8889999389648438 -0.824999988079071,2.8889999389648438 C-0.824999988079071,2.8889999389648438 -3.2769999504089355,6.961999893188477 -2.2119998931884766,8.006999969482422 C-0.0020000000949949026,10.175999641418457 7.889999866485596,7.5229997634887695 8.135000228881836,4.710999965667725 C8.234000205993652,3.575000047683716 4.357999801635742,1.444000005722046 4.357999801635742,1.444000005722046 C4.357999801635742,1.444000005722046 6.880000114440918,-6.302999973297119 4.946000099182129,-8.02400016784668z"></path></g></g><g transform="matrix(-1,0,0,1,506,-9)" opacity="1" style="display: block;"><g opacity="1" transform="matrix(1,0,0,1,250.71099853515625,398.92498779296875)"><path fill="url(#__lottie_element_357)" fill-opacity="1" d=" M53.553001403808594,-72.8030014038086 C53.553001403808594,-72.8030014038086 -53.553001403808594,-72.8030014038086 -53.553001403808594,-72.8030014038086 C-63.41600036621094,-72.8030014038086 -71.41100311279297,-63.58300018310547 -71.41100311279297,-52.209999084472656 C-71.41100311279297,-52.209999084472656 -71.41100311279297,52.209999084472656 -71.41100311279297,52.209999084472656 C-71.41100311279297,63.58300018310547 -63.41600036621094,72.8030014038086 -53.553001403808594,72.8030014038086 C-53.553001403808594,72.8030014038086 53.553001403808594,72.8030014038086 53.553001403808594,72.8030014038086 C63.415000915527344,72.8030014038086 71.41100311279297,63.58300018310547 71.41100311279297,52.209999084472656 C71.41100311279297,52.209999084472656 71.41100311279297,-52.209999084472656 71.41100311279297,-52.209999084472656 C71.41100311279297,-63.58300018310547 63.415000915527344,-72.8030014038086 53.553001403808594,-72.8030014038086z M36.99599838256836,31.663000106811523 C36.99599838256836,35.00699996948242 34.64500045776367,37.71799850463867 31.7450008392334,37.71799850463867 C31.7450008392334,37.71799850463867 -31.746000289916992,37.71799850463867 -31.746000289916992,37.71799850463867 C-34.645999908447266,37.71799850463867 -36.99599838256836,35.00699996948242 -36.99599838256836,31.663000106811523 C-36.99599838256836,31.663000106811523 -36.99599838256836,-31.663000106811523 -36.99599838256836,-31.663000106811523 C-36.99599838256836,-35.00699996948242 -34.645999908447266,-37.71799850463867 -31.746000289916992,-37.71799850463867 C-31.746000289916992,-37.71799850463867 31.7450008392334,-37.71799850463867 31.7450008392334,-37.71799850463867 C34.64500045776367,-37.71799850463867 36.99599838256836,-35.00699996948242 36.99599838256836,-31.663000106811523 C36.99599838256836,-31.663000106811523 36.99599838256836,31.663000106811523 36.99599838256836,31.663000106811523z"></path></g><g opacity="0.9" transform="matrix(1,0,0,1,250.71099853515625,352.1940002441406)"><path stroke="url(#__lottie_element_358)" stroke-linecap="round" stroke-linejoin="round" fill-opacity="0" stroke-opacity="1" stroke-width="18" d=" M71.41100311279297,9.095999717712402 C71.41100311279297,-0.9509999752044678 63.415000915527344,-9.095999717712402 53.553001403808594,-9.095999717712402 C53.553001403808594,-9.095999717712402 -53.553001403808594,-9.095999717712402 -53.553001403808594,-9.095999717712402 C-63.41600036621094,-9.095999717712402 -71.41100311279297,-0.9509999752044678 -71.41100311279297,9.095999717712402"></path></g><g opacity="1" transform="matrix(1,0,0,1,225.30999755859375,403.125)"><path stroke="url(#__lottie_element_359)" stroke-linecap="round" stroke-linejoin="round" fill-opacity="0" stroke-opacity="1" stroke-width="18" d=" M0,0"></path></g><g opacity="1" transform="matrix(1,0,0,1,250.7100067138672,398.92498779296875)"><path fill="url(#__lottie_element_360)" fill-opacity="1" d=" M36.99599838256836,31.663000106811523 C36.99599838256836,35.00699996948242 34.645999908447266,37.71799850463867 31.746000289916992,37.71799850463867 C31.746000289916992,37.71799850463867 -31.746000289916992,37.71799850463867 -31.746000289916992,37.71799850463867 C-34.645999908447266,37.71799850463867 -36.99599838256836,35.00699996948242 -36.99599838256836,31.663000106811523 C-36.99599838256836,31.663000106811523 -36.99599838256836,-31.663000106811523 -36.99599838256836,-31.663000106811523 C-36.99599838256836,-35.00699996948242 -34.645999908447266,-37.71799850463867 -31.746000289916992,-37.71799850463867 C-31.746000289916992,-37.71799850463867 31.746000289916992,-37.71799850463867 31.746000289916992,-37.71799850463867 C34.645999908447266,-37.71799850463867 36.99599838256836,-35.00699996948242 36.99599838256836,-31.663000106811523 C36.99599838256836,-31.663000106811523 36.99599838256836,31.663000106811523 36.99599838256836,31.663000106811523z"></path></g><g opacity="0.2" transform="matrix(1,0,0,1,250.71299743652344,417.5150146484375)"><path fill="rgb(18,11,51)" fill-opacity="1" d=" M36.994998931884766,-19.125 C36.994998931884766,-19.125 36.994998931884766,13.074999809265137 36.994998931884766,13.074999809265137 C36.994998931884766,16.415000915527344 34.64500045776367,19.125 31.7450008392334,19.125 C31.7450008392334,19.125 -31.7450008392334,19.125 -31.7450008392334,19.125 C-34.64500045776367,19.125 -36.994998931884766,16.415000915527344 -36.994998931884766,13.074999809265137 C-36.994998931884766,13.074999809265137 -36.994998931884766,-19.125 -36.994998931884766,-19.125 C-36.994998931884766,-15.774999618530273 -34.64500045776367,-13.0649995803833 -31.7450008392334,-13.0649995803833 C-31.7450008392334,-13.0649995803833 31.7450008392334,-13.0649995803833 31.7450008392334,-13.0649995803833 C34.64500045776367,-13.0649995803833 36.994998931884766,-15.774999618530273 36.994998931884766,-19.125z"></path></g><g opacity="1" transform="matrix(1,0,0,1,250.7100067138672,398.92498779296875)"><path stroke="url(#__lottie_element_361)" stroke-linecap="round" stroke-linejoin="round" fill-opacity="0" stroke-opacity="1" stroke-width="18" d=" M36.99599838256836,31.663000106811523 C36.99599838256836,35.00699996948242 34.645999908447266,37.71799850463867 31.746000289916992,37.71799850463867 C31.746000289916992,37.71799850463867 -31.746000289916992,37.71799850463867 -31.746000289916992,37.71799850463867 C-34.645999908447266,37.71799850463867 -36.99599838256836,35.00699996948242 -36.99599838256836,31.663000106811523 C-36.99599838256836,31.663000106811523 -36.99599838256836,-31.663000106811523 -36.99599838256836,-31.663000106811523 C-36.99599838256836,-35.00699996948242 -34.645999908447266,-37.71799850463867 -31.746000289916992,-37.71799850463867 C-31.746000289916992,-37.71799850463867 31.746000289916992,-37.71799850463867 31.746000289916992,-37.71799850463867 C34.645999908447266,-37.71799850463867 36.99599838256836,-35.00699996948242 36.99599838256836,-31.663000106811523 C36.99599838256836,-31.663000106811523 36.99599838256836,31.663000106811523 36.99599838256836,31.663000106811523z"></path></g><g opacity="1" transform="matrix(1,0,0,1,250.71099853515625,398.92498779296875)"><path stroke="url(#__lottie_element_362)" stroke-linecap="round" stroke-linejoin="round" fill-opacity="0" stroke-opacity="1" stroke-width="18" d=" M50.11399841308594,-72.8030014038086 C50.11399841308594,-72.8030014038086 -50.11399841308594,-72.8030014038086 -50.11399841308594,-72.8030014038086 C-61.875999450683594,-72.8030014038086 -71.41100311279297,-61.80799865722656 -71.41100311279297,-48.24399948120117 C-71.41100311279297,-48.24399948120117 -71.41100311279297,48.24399948120117 -71.41100311279297,48.24399948120117 C-71.41100311279297,61.80799865722656 -61.875999450683594,72.8030014038086 -50.11399841308594,72.8030014038086 C-50.11399841308594,72.8030014038086 50.11399841308594,72.8030014038086 50.11399841308594,72.8030014038086 C61.875999450683594,72.8030014038086 71.41100311279297,61.80799865722656 71.41100311279297,48.24399948120117 C71.41100311279297,48.24399948120117 71.41100311279297,-48.24399948120117 71.41100311279297,-48.24399948120117 C71.41100311279297,-61.80799865722656 61.875999450683594,-72.8030014038086 50.11399841308594,-72.8030014038086z"></path></g></g><g transform="matrix(-0.8556116223335266,0.5727171897888184,0.5727171897888184,0.8556116223335266,468.6815185546875,-159.138916015625)" opacity="1" style="display: block;"><g opacity="1" transform="matrix(1,0,0,1,444.1319885253906,202.10699462890625)"><path fill="rgb(44,46,146)" fill-opacity="1" d=" M4.478000164031982,10.675999641418457 C-4.486999988555908,15.199999809265137 -13.482000350952148,2.4739999771118164 -10.892999649047852,-3.7669999599456787 C-9.807999610900879,-6.381999969482422 -0.5130000114440918,-10.86400032043457 0.8610000014305115,-11.491000175476074 C3.7130000591278076,-12.791999816894531 11.866999626159668,-4.454999923706055 11.317999839782715,-1.36899995803833 C11.095999717712402,-0.12300000339746475 6.821000099182129,9.494000434875488 4.478000164031982,10.675999641418457z"></path><path stroke-linecap="butt" stroke-linejoin="miter" fill-opacity="0" stroke-miterlimit="10" stroke="rgb(16,17,29)" stroke-opacity="1" stroke-width="3" d=" M4.478000164031982,10.675999641418457 C-4.486999988555908,15.199999809265137 -13.482000350952148,2.4739999771118164 -10.892999649047852,-3.7669999599456787 C-9.807999610900879,-6.381999969482422 -0.5130000114440918,-10.86400032043457 0.8610000014305115,-11.491000175476074 C3.7130000591278076,-12.791999816894531 11.866999626159668,-4.454999923706055 11.317999839782715,-1.36899995803833 C11.095999717712402,-0.12300000339746475 6.821000099182129,9.494000434875488 4.478000164031982,10.675999641418457z"></path></g><g opacity="1" transform="matrix(1,0,0,1,447.81201171875,198.6529998779297)"><path fill="rgb(44,46,146)" fill-opacity="1" d=" M-7.083000183105469,5.695000171661377 C-8.210000038146973,4.349999904632568 -5.892000198364258,0.25600001215934753 -4.5229997634887695,-0.8420000076293945 C-2.0899999141693115,-2.7929999828338623 4.823999881744385,-7.940999984741211 6.9720001220703125,-5.681000232696533 C8.991000175476074,-3.558000087738037 3.0250000953674316,2.509000062942505 0.6019999980926514,4.156000137329102 C-1.0190000534057617,5.256999969482422 -5.823999881744385,7.197000026702881 -7.083000183105469,5.695000171661377z"></path><path stroke-linecap="butt" stroke-linejoin="miter" fill-opacity="0" stroke-miterlimit="10" stroke="rgb(16,17,29)" stroke-opacity="1" stroke-width="3" d=" M-7.083000183105469,5.695000171661377 C-8.210000038146973,4.349999904632568 -5.892000198364258,0.25600001215934753 -4.5229997634887695,-0.8420000076293945 C-2.0899999141693115,-2.7929999828338623 4.823999881744385,-7.940999984741211 6.9720001220703125,-5.681000232696533 C8.991000175476074,-3.558000087738037 3.0250000953674316,2.509000062942505 0.6019999980926514,4.156000137329102 C-1.0190000534057617,5.256999969482422 -5.823999881744385,7.197000026702881 -7.083000183105469,5.695000171661377z"></path></g></g><g transform="matrix(-1.0020557641983032,0.23655962944030762,0.23655962944030762,1.0020557641983032,183.37281799316406,284.2509460449219)" opacity="1" style="display: block;"><g opacity="1" transform="matrix(1,0,0,1,0,0)"><path fill="rgb(44,46,146)" fill-opacity="1" d=" M16.43600082397461,-2.0950000286102295 C6.479000091552734,-11.668999671936035 -11.522000312805176,-18.945999145507812 -11.522000312805176,-18.945999145507812 C-14.748000144958496,-19.72800064086914 -18.349000930786133,-16.113000869750977 -17.79800033569336,-12.84000015258789 C-16.117000579833984,-2.8610000610351562 -10.373000144958496,7.86299991607666 -2.7130000591278076,17.437000274658203 C3.250999927520752,24.891000747680664 23.316999435424805,4.521999835968018 16.43600082397461,-2.0950000286102295z M2.3929998874664307,9.777999877929688 C2.3929998874664307,9.777999877929688 -3.7339999675750732,-0.18000000715255737 -3.7339999675750732,-0.18000000715255737 C-3.7339999675750732,-0.18000000715255737 -2.4579999446868896,-3.753999948501587 -2.4579999446868896,-3.753999948501587 C-2.4579999446868896,-3.753999948501587 9.031000137329102,1.097000002861023 9.031000137329102,1.097000002861023 C9.031000137329102,1.097000002861023 2.3929998874664307,9.777999877929688 2.3929998874664307,9.777999877929688z"></path><path stroke-linecap="butt" stroke-linejoin="miter" fill-opacity="0" stroke-miterlimit="10" stroke="rgb(16,17,29)" stroke-opacity="1" stroke-width="4" d=" M16.43600082397461,-2.0950000286102295 C6.479000091552734,-11.668999671936035 -11.522000312805176,-18.945999145507812 -11.522000312805176,-18.945999145507812 C-14.748000144958496,-19.72800064086914 -18.349000930786133,-16.113000869750977 -17.79800033569336,-12.84000015258789 C-16.117000579833984,-2.8610000610351562 -10.373000144958496,7.86299991607666 -2.7130000591278076,17.437000274658203 C3.250999927520752,24.891000747680664 23.316999435424805,4.521999835968018 16.43600082397461,-2.0950000286102295z M2.3929998874664307,9.777999877929688 C2.3929998874664307,9.777999877929688 -3.7339999675750732,-0.18000000715255737 -3.7339999675750732,-0.18000000715255737 C-3.7339999675750732,-0.18000000715255737 -2.4579999446868896,-3.753999948501587 -2.4579999446868896,-3.753999948501587 C-2.4579999446868896,-3.753999948501587 9.031000137329102,1.097000002861023 9.031000137329102,1.097000002861023 C9.031000137329102,1.097000002861023 2.3929998874664307,9.777999877929688 2.3929998874664307,9.777999877929688z"></path></g></g><g style="display: none;"><g><g><path stroke="url(#__lottie_element_342)" stroke-linecap="round" stroke-linejoin="round" fill-opacity="0"></path></g></g></g><g style="display: none;"><g><path fill="url(#__lottie_element_337)"></path></g><g><path stroke="url(#__lottie_element_338)" stroke-linecap="round" stroke-linejoin="round" fill-opacity="0"></path></g><g><g><path stroke-linecap="round" stroke-linejoin="round" fill-opacity="0"></path></g><g><path stroke-linecap="round" stroke-linejoin="round" fill-opacity="0"></path></g><g><path stroke-linecap="round" stroke-linejoin="round" fill-opacity="0"></path></g><g><path stroke-linecap="round" stroke-linejoin="round" fill-opacity="0"></path></g></g><g><path stroke-linecap="round" stroke-linejoin="round" fill-opacity="0"></path></g><g><path stroke-linecap="round" stroke-linejoin="round" fill-opacity="0"></path></g><g><path stroke-linecap="round" stroke-linejoin="round" fill-opacity="0"></path></g></g><g style="display: none;"><g><g><path stroke="url(#__lottie_element_332)" stroke-linecap="round" stroke-linejoin="round" fill-opacity="0"></path></g></g><g><path stroke="url(#__lottie_element_333)" stroke-linecap="round" stroke-linejoin="round" fill-opacity="0"></path><g></g></g></g></g></svg>